<svg xmlns="http://www.w3.org/2000/svg" version="1.1" height="240" width="544" viewBox="0 0 544 240" class="diagram" text-anchor="middle" font-family="monospace" font-size="13px">
<path d="M 8,16 L 8,48" fill="none" stroke="black"/>
<path d="M 40,48 L 40,224" fill="none" stroke="black"/>
<path d="M 72,16 L 72,48" fill="none" stroke="black"/>
<path d="M 128,16 L 128,48" fill="none" stroke="black"/>
<path d="M 176,48 L 176,224" fill="none" stroke="black"/>
<path d="M 232,16 L 232,48" fill="none" stroke="black"/>
<path d="M 304,80 L 304,192" fill="none" stroke="black"/>
<path d="M 320,16 L 320,48" fill="none" stroke="black"/>
<path d="M 352,48 L 352,80" fill="none" stroke="black"/>
<path d="M 352,112 L 352,224" fill="none" stroke="black"/>
<path d="M 384,16 L 384,48" fill="none" stroke="black"/>
<path d="M 400,96 L 400,112" fill="none" stroke="black"/>
<path d="M 448,16 L 448,48" fill="none" stroke="black"/>
<path d="M 488,48 L 488,224" fill="none" stroke="black"/>
<path d="M 536,16 L 536,48" fill="none" stroke="black"/>
<path d="M 536,128 L 536,192" fill="none" stroke="black"/>
<path d="M 8,16 L 72,16" fill="none" stroke="black"/>
<path d="M 128,16 L 232,16" fill="none" stroke="black"/>
<path d="M 320,16 L 384,16" fill="none" stroke="black"/>
<path d="M 448,16 L 536,16" fill="none" stroke="black"/>
<path d="M 8,48 L 72,48" fill="none" stroke="black"/>
<path d="M 128,48 L 232,48" fill="none" stroke="black"/>
<path d="M 320,48 L 384,48" fill="none" stroke="black"/>
<path d="M 448,48 L 536,48" fill="none" stroke="black"/>
<path d="M 304,80 L 384,80" fill="none" stroke="black"/>
<path d="M 304,112 L 520,112" fill="none" stroke="black"/>
<path d="M 352,160 L 480,160" fill="none" stroke="black"/>
<path d="M 360,192 L 488,192" fill="none" stroke="black"/>
<path d="M 320,208 L 520,208" fill="none" stroke="black"/>
<path d="M 384,80 C 392.83064,80 400,87.16936 400,96" fill="none" stroke="black"/>
<path d="M 520,112 C 528.83064,112 536,119.16936 536,128" fill="none" stroke="black"/>
<path d="M 320,208 C 311.16936,208 304,200.83064 304,192" fill="none" stroke="black"/>
<path d="M 520,208 C 528.83064,208 536,200.83064 536,192" fill="none" stroke="black"/>
<polygon class="arrowhead" points="488,160 476,154.4 476,165.6 " fill="black" transform="rotate(0,480,160)"/>
<polygon class="arrowhead" points="368,192 356,186.4 356,197.6 " fill="black" transform="rotate(180,360,192)"/>
<g class="text">
<text x="40" y="36">TLS A</text>
<text x="180" y="36">Verifier X</text>
<text x="352" y="36">TLS B</text>
<text x="492" y="36">Attester</text>
<text x="352" y="100">discovery</text>
<text x="416" y="132">discover supp</text>
<text x="404" y="148">media-type</text>
<text x="420" y="180">kat-media-type</text>
</g>
</svg>
